<mxfile host="app.diagrams.net" modified="2024-07-13T13:28:53.200Z" agent="Mozilla/5.0 (Windows NT 10.0; Win64; x64) AppleWebKit/537.36 (KHTML, like Gecko) Chrome/125.0.0.0 Safari/537.36 OPR/111.0.0.0" etag="4g85PINouBXbpcV4e5X8" version="24.6.5" type="github">
  <diagram name="Page-1" id="mzJbTqpyfRkgzpyweL4M">
    <mxGraphModel dx="952" dy="509" grid="1" gridSize="10" guides="1" tooltips="1" connect="1" arrows="1" fold="1" page="1" pageScale="1" pageWidth="850" pageHeight="1100" math="0" shadow="0">
      <root>
        <mxCell id="0" />
        <mxCell id="1" parent="0" />
        <mxCell id="QoFvrlMQni7rL53QiSBb-18" style="edgeStyle=orthogonalEdgeStyle;rounded=0;orthogonalLoop=1;jettySize=auto;html=1;entryX=0.5;entryY=0;entryDx=0;entryDy=0;" edge="1" parent="1" source="QoFvrlMQni7rL53QiSBb-1" target="QoFvrlMQni7rL53QiSBb-10">
          <mxGeometry relative="1" as="geometry" />
        </mxCell>
        <mxCell id="QoFvrlMQni7rL53QiSBb-1" value="Player open&lt;br&gt;the Game" style="ellipse;whiteSpace=wrap;html=1;" vertex="1" parent="1">
          <mxGeometry x="365" y="10" width="120" height="80" as="geometry" />
        </mxCell>
        <mxCell id="QoFvrlMQni7rL53QiSBb-14" style="edgeStyle=orthogonalEdgeStyle;rounded=0;orthogonalLoop=1;jettySize=auto;html=1;" edge="1" parent="1" source="QoFvrlMQni7rL53QiSBb-10" target="QoFvrlMQni7rL53QiSBb-11">
          <mxGeometry relative="1" as="geometry" />
        </mxCell>
        <mxCell id="QoFvrlMQni7rL53QiSBb-15" style="edgeStyle=orthogonalEdgeStyle;rounded=0;orthogonalLoop=1;jettySize=auto;html=1;" edge="1" parent="1" source="QoFvrlMQni7rL53QiSBb-10" target="QoFvrlMQni7rL53QiSBb-12">
          <mxGeometry relative="1" as="geometry" />
        </mxCell>
        <mxCell id="QoFvrlMQni7rL53QiSBb-16" style="edgeStyle=orthogonalEdgeStyle;rounded=0;orthogonalLoop=1;jettySize=auto;html=1;" edge="1" parent="1" source="QoFvrlMQni7rL53QiSBb-10" target="QoFvrlMQni7rL53QiSBb-13">
          <mxGeometry relative="1" as="geometry" />
        </mxCell>
        <mxCell id="QoFvrlMQni7rL53QiSBb-10" value="Open screen" style="shape=parallelogram;perimeter=parallelogramPerimeter;whiteSpace=wrap;html=1;fixedSize=1;" vertex="1" parent="1">
          <mxGeometry x="365" y="140" width="120" height="60" as="geometry" />
        </mxCell>
        <mxCell id="QoFvrlMQni7rL53QiSBb-11" value="Enter" style="rhombus;whiteSpace=wrap;html=1;" vertex="1" parent="1">
          <mxGeometry x="385" y="230" width="80" height="80" as="geometry" />
        </mxCell>
        <mxCell id="QoFvrlMQni7rL53QiSBb-12" value="Setting" style="rhombus;whiteSpace=wrap;html=1;" vertex="1" parent="1">
          <mxGeometry x="210" y="230" width="80" height="80" as="geometry" />
        </mxCell>
        <mxCell id="QoFvrlMQni7rL53QiSBb-13" value="Credit" style="rhombus;whiteSpace=wrap;html=1;" vertex="1" parent="1">
          <mxGeometry x="560" y="230" width="80" height="80" as="geometry" />
        </mxCell>
      </root>
    </mxGraphModel>
  </diagram>
</mxfile>
